<svg width="1920" height="195" viewBox="0 0 1920 195" fill="none" xmlns="http://www.w3.org/2000/svg">
<mask id="mask0_3657_283912" style="mask-type:alpha" maskUnits="userSpaceOnUse" x="0" y="0" width="1711" height="195">
<path d="M0 0H1711V195H0V0Z" fill="url(#paint0_linear_3657_283912)"/>
</mask>
<g mask="url(#mask0_3657_283912)">
<path d="M1476.18 348.773C1417.62 319.292 1359.88 287.402 1303.25 252.956H1370.01C1238.91 173.211 1113.73 79.819 997.693 -28.3461H1053.33C1037.45 -43.1441 1021.68 -58.1311 1006.15 -73.4882C930.279 -148.539 860.623 -227.469 797.157 -309.639H841.666C772.051 -399.775 709.962 -493.833 655.282 -590.941H688.664C637.256 -682.236 592.418 -776.22 554.223 -872.242H576.478C543.418 -955.341 515.278 -1039.94 492.109 -1125.61L520.117 -1153.54C554.586 -1057.74 595.542 -963.768 642.869 -872.242H620.615C670.679 -775.455 727.914 -681.422 792.377 -590.941H758.995C829.022 -492.649 907.547 -398.542 994.602 -309.639H950.093C959.003 -300.547 967.971 -291.487 977.054 -282.501C1073.1 -187.49 1175.92 -102.911 1283.7 -28.3378H1228.07C1356.01 60.1788 1490.99 134.53 1630.08 195.268L1476.18 348.781V348.773ZM1448.17 376.708C1309.06 315.97 1174.09 241.619 1046.15 153.102H1101.78C994.008 78.5283 891.194 -6.05035 795.138 -101.062C786.055 -110.047 777.079 -119.107 768.177 -128.199H812.686C725.63 -217.102 647.106 -311.21 577.079 -409.501H610.461C545.997 -499.982 488.763 -594.007 438.699 -690.803H460.953C413.618 -782.328 372.67 -876.304 338.201 -972.104L310.193 -944.169C333.362 -858.505 361.502 -773.901 394.562 -690.803H372.307C410.51 -594.78 455.349 -500.796 506.748 -409.501H473.366C528.046 -312.393 590.143 -218.336 659.75 -128.199H615.241C678.707 -46.0295 748.363 32.9094 824.233 107.952C839.762 123.309 855.529 138.296 871.412 153.094H815.776C931.82 261.251 1057 354.651 1188.1 434.395H1121.34C1177.97 468.842 1235.71 500.731 1294.26 530.212L1448.17 376.7V376.708ZM901.983 921.487C762.877 860.75 627.91 786.398 499.964 697.882H555.6C447.823 623.308 345.009 538.729 248.953 443.718C239.87 434.732 230.894 425.673 221.992 416.58H266.501C179.445 327.677 100.921 233.57 30.8943 135.279H64.2756C-0.187477 44.7972 -57.4221 -49.2277 -107.486 -146.023H-85.2316C-132.567 -237.549 -173.515 -331.524 -207.984 -427.324L-236 -399.381C-212.831 -313.717 -184.692 -229.114 -151.632 -146.015H-173.886C-135.683 -49.9922 -90.8447 43.9915 -39.4456 135.287H-72.827C-18.1475 232.395 43.9501 326.452 113.556 416.588H69.0479C132.514 498.758 202.169 577.697 278.04 652.74C293.568 668.097 309.336 683.084 325.219 697.882H269.583C385.627 806.038 510.803 899.438 641.905 979.183H575.142C631.775 1013.63 689.513 1045.52 748.066 1075L901.975 921.487H901.983ZM1265.81 558.592C1126.71 497.854 991.742 423.502 863.796 334.986H919.432C811.655 260.412 708.841 175.833 612.785 80.822C603.702 71.8364 594.726 62.7767 585.824 53.6842H630.333C543.277 -35.2188 464.753 -129.326 394.726 -227.617H428.108C363.645 -318.099 306.41 -412.124 256.346 -508.919H278.6C231.265 -600.444 190.317 -694.42 155.848 -790.22L127.84 -762.285C151.009 -676.621 179.149 -592.018 212.209 -508.919H189.954C228.157 -412.896 272.996 -318.913 324.395 -227.617H291.013C345.693 -130.51 407.79 -36.452 477.397 53.6842H432.888C496.354 135.854 566.01 214.793 641.88 289.835C657.409 305.192 673.176 320.18 689.059 334.978H633.424C749.467 443.134 874.643 536.534 1005.75 616.279H938.983C995.616 650.725 1053.35 682.615 1111.91 712.096L1265.81 558.583V558.592ZM1083.9 740.04C944.793 679.302 809.826 604.95 681.88 516.434H737.516C629.739 441.86 526.925 357.281 430.869 262.27C421.786 253.284 412.81 244.225 403.908 235.132H448.417C361.361 146.229 282.837 52.1221 212.81 -46.1694H246.192C181.729 -136.651 124.494 -230.676 74.4301 -327.471H96.6844C49.3488 -418.996 8.401 -512.972 -26.0683 -608.772L-54.0757 -580.837C-30.9066 -495.173 -2.76734 -410.57 30.2926 -327.471H8.03833C46.2414 -231.448 91.0796 -137.465 142.479 -46.1694H109.097C163.777 50.9382 225.874 144.996 295.481 235.132H250.972C314.438 317.302 384.094 396.241 459.964 471.283C475.493 486.64 491.26 501.627 507.143 516.425H451.508C567.551 624.582 692.727 717.982 823.829 797.727H757.067C813.699 832.173 871.437 864.063 929.99 893.544L1083.9 740.031V740.04Z" fill="url(#paint1_linear_3657_283912)"/>
</g>
<defs>
<linearGradient id="paint0_linear_3657_283912" x1="747.758" y1="-328.235" x2="870.154" y2="295.837" gradientUnits="userSpaceOnUse">
<stop offset="0.2" stop-color="#05F0FF"/>
<stop offset="0.81" stop-color="#7367FF"/>
<stop offset="1" stop-color="#963CFF"/>
</linearGradient>
<linearGradient id="paint1_linear_3657_283912" x1="671.5" y1="-2538.5" x2="2774.42" y2="-898.522" gradientUnits="userSpaceOnUse">
<stop offset="0.2" stop-color="#05F0FF"/>
<stop offset="0.81" stop-color="#7367FF"/>
<stop offset="1" stop-color="#963CFF"/>
</linearGradient>
</defs>
</svg>
